<svg xmlns="http://www.w3.org/2000/svg" viewBox="0 0 218.01 70.48"><defs><style>.cls-1{fill:#1d1d1b;}.cls-2{fill:#ca9e67;}.cls-3{fill:#e71d73;}</style></defs><g id="Calque_2" data-name="Calque 2"><g id="Calque_1-2" data-name="Calque 1"><path class="cls-1" d="M133.88,64.87a2.63,2.63,0,0,1,1.1,2,2.49,2.49,0,0,1-.61,1.58A4.82,4.82,0,0,1,132,70a9.92,9.92,0,0,1-3.12.46H118.53v-7h10.69a2.92,2.92,0,0,0,.9-.13c.37-.13.56-.32.56-.56s-.19-.43-.56-.55a2.92,2.92,0,0,0-.9-.13H118.53l2.59-2.93h7.73a10,10,0,0,1,3.14.47,5,5,0,0,1,2.38,1.56,2.55,2.55,0,0,1,.61,1.61A2.77,2.77,0,0,1,133.88,64.87Zm-4.67,1.48h-6.84v1.19h6.84a5.78,5.78,0,0,0,1.13-.11c.53-.1.79-.27.79-.49s-.26-.38-.79-.48A5.1,5.1,0,0,0,129.21,66.35Z"/><path class="cls-1" d="M154.53,59.14l-7.35,7.58v3.76h-3.84V66.71l-7.58-7.57h4.91l4.64,4.61,4.33-4.61Z"/><path class="cls-1" d="M167.6,70.48l2.32-2.92h5.16l-3.21-4.1-5.58,7h-4.75l7.93-10.08a3.34,3.34,0,0,1,1.05-.89,2.68,2.68,0,0,1,2.85,0,3.59,3.59,0,0,1,1,.89l7.74,10.08Z"/><path class="cls-1" d="M198.38,67.56l-2.47,2.92h-6.22a8.42,8.42,0,0,1-5.34-1.64,5,5,0,0,1-2.12-4.13,4.77,4.77,0,0,1,2.09-4,8.83,8.83,0,0,1,5.37-1.54h8.69l-2.47,2.92h-6.2a4.16,4.16,0,0,0-2.61.79,2.41,2.41,0,0,0-1,2,2.36,2.36,0,0,0,1,2,4.34,4.34,0,0,0,2.61.76Z"/><path class="cls-1" d="M218,64.71a5,5,0,0,1-2.12,4.13,8.46,8.46,0,0,1-5.35,1.64h-3.73a8.45,8.45,0,0,1-5.36-1.64,5,5,0,0,1-2.12-4.13,4.78,4.78,0,0,1,2.1-4,8.86,8.86,0,0,1,5.38-1.54h3.73a8.81,8.81,0,0,1,5.37,1.54A4.78,4.78,0,0,1,218,64.71Zm-7.47-2.65h-3.72a4.17,4.17,0,0,0-2.62.79,2.38,2.38,0,0,0-1,2,2.32,2.32,0,0,0,1,2,4.34,4.34,0,0,0,2.62.75h3.72a4.36,4.36,0,0,0,2.63-.75,2.35,2.35,0,0,0,1-2,2.39,2.39,0,0,0-1-2A4.19,4.19,0,0,0,210.54,62.06Z"/><path class="cls-2" d="M59.74,51.66,49.32,47.94a18.13,18.13,0,0,1-4.61,1.92,20.43,20.43,0,0,1-5.35.65H20.89A18.53,18.53,0,0,1,5.17,42.77Q0,35.85,0,25.69,0,15.3,5.25,8A18.38,18.38,0,0,1,20.89,0H39.36A18.36,18.36,0,0,1,55,8q5.3,7.29,5.3,17.64a30.18,30.18,0,0,1-2.84,13.14l2.29.89ZM44.9,34.09a17.33,17.33,0,0,0,1.5-4.39,23.89,23.89,0,0,0,.5-4.95A18.56,18.56,0,0,0,44.53,15a8.11,8.11,0,0,0-7.26-4.39H23c-3.06,0-5.46,1.47-7.21,4.39a18.46,18.46,0,0,0-2.38,9.71A20.08,20.08,0,0,0,15.8,34.91q2.67,4.65,7.17,4.65h2.84V26.78Z"/><path class="cls-1" d="M111.48,32.41q0,8.76-7.63,14Q97,51.08,87.13,51.07T70.88,46.49a16.27,16.27,0,0,1-7.34-14.08V.45H75.79V30.58A7.27,7.27,0,0,0,79.59,37,15.38,15.38,0,0,0,88,39.15a14.31,14.31,0,0,0,8-2.08,7.39,7.39,0,0,0,3.63-6.49V.45h11.92Z"/><path class="cls-1" d="M129.24,50.51H116.69V0h12.55Z"/><path class="cls-3" d="M175.73,25.38l-27.56,10a1.93,1.93,0,0,0-1.46.52,1.78,1.78,0,0,0-.5,1.26,2.43,2.43,0,0,0,.79,1.75,2.91,2.91,0,0,0,2.13.78H184V50.92H146a11.16,11.16,0,0,1-8.8-3.91A12.84,12.84,0,0,1,134,38.22a13.63,13.63,0,0,1,2.59-8.16,15.57,15.57,0,0,1,8.34-5.66l25.43-9.09a3,3,0,0,0,2.13-.79c.55-.53.79-1,.7-1.46a2.45,2.45,0,0,0-1-1.44,3.49,3.49,0,0,0-1.83-.41H134.16V0h39.07a13.43,13.43,0,0,1,10,3.76,11.48,11.48,0,0,1,3.42,8.45A12.54,12.54,0,0,1,183.94,20,15.51,15.51,0,0,1,175.73,25.38Z"/></g></g></svg>