<svg xmlns="http://www.w3.org/2000/svg" viewBox="0 0 276.35 51.66"><defs><style>.cls-1{fill:#ca9e67;}.cls-2{fill:#1d1d1b;}.cls-3{fill:#e71d73;}</style></defs><g id="Calque_2" data-name="Calque 2"><g id="Calque_1-2" data-name="Calque 1"><path class="cls-1" d="M59.74,51.66,49.32,47.94a18.13,18.13,0,0,1-4.61,1.92,20.43,20.43,0,0,1-5.35.65H20.89A18.52,18.52,0,0,1,5.17,42.77Q0,35.85,0,25.69,0,15.3,5.25,8A18.38,18.38,0,0,1,20.89,0H39.36A18.36,18.36,0,0,1,55,8q5.3,7.29,5.3,17.64a30.18,30.18,0,0,1-2.84,13.14l2.29.89ZM44.9,34.09a17.33,17.33,0,0,0,1.5-4.39,23.89,23.89,0,0,0,.5-4.95A18.56,18.56,0,0,0,44.53,15c-1.76-2.92-4.17-4.39-7.26-4.39H23c-3.06,0-5.46,1.47-7.21,4.39a18.46,18.46,0,0,0-2.38,9.71A20.08,20.08,0,0,0,15.8,34.91q2.67,4.65,7.17,4.65h2.84V26.78Z"/><path class="cls-2" d="M111.48,32.41q0,8.76-7.63,14Q97,51.08,87.13,51.07T70.87,46.49a16.29,16.29,0,0,1-7.33-14.08V.45H75.79V30.58A7.27,7.27,0,0,0,79.59,37,15.38,15.38,0,0,0,88,39.15a14.31,14.31,0,0,0,8-2.08,7.39,7.39,0,0,0,3.63-6.49V.45h11.92Z"/><path class="cls-2" d="M129.24,50.51H116.69V0h12.55Z"/><path class="cls-3" d="M175.73,25.38l-27.56,10a1.92,1.92,0,0,0-1.46.52,1.78,1.78,0,0,0-.5,1.26,2.39,2.39,0,0,0,.79,1.75,2.91,2.91,0,0,0,2.13.78H184V50.92H146a11.14,11.14,0,0,1-8.8-3.91A12.84,12.84,0,0,1,134,38.22a13.56,13.56,0,0,1,2.59-8.16,15.53,15.53,0,0,1,8.34-5.66l25.43-9.09a2.93,2.93,0,0,0,2.12-.79c.56-.53.8-1,.71-1.46a2.45,2.45,0,0,0-1-1.44,3.52,3.52,0,0,0-1.83-.41H134.16V0h39.07a13.43,13.43,0,0,1,10,3.76,11.48,11.48,0,0,1,3.42,8.45A12.54,12.54,0,0,1,183.94,20,15.51,15.51,0,0,1,175.73,25.38Z"/><path class="cls-2" d="M203.44,35.34H189.23V33.9h12A2.23,2.23,0,0,1,203.44,35.34Zm.19,1.92h-14.4V35.82h14.35a2.61,2.61,0,0,1,0,.48Zm-10.8,1.92h-3.6V37.74h3.6Zm10.61.48a2.23,2.23,0,0,1-2.21,1.44h-12V39.66Zm0,3.36H189.23V41.58h12A2.23,2.23,0,0,1,203.44,43Zm-10.61,1.92h-3.6V43.5h3.6Zm0,1.92h-3.6V45.42h3.6Zm10.8,1.44a2.61,2.61,0,0,1,0,.48H189.23V47.34h14.4Zm-.19,1a2.23,2.23,0,0,1-2.21,1.44h-12V49.26Zm.19-10.56a2.61,2.61,0,0,1,0,.48H200V37.74h3.6Zm0,6.24H200V43.5h3.55a2.61,2.61,0,0,1,0,.48Zm0,1.92H200V45.42h3.6Z"/><path class="cls-2" d="M210.69,35.34h-4.56l-1.06-1.44h4.56Zm1.39,1.92h-4.56l-1.06-1.44H211Zm7,.48-1,1.44h-9.12l-1-1.44h4.56l1,1.44,1-1.44Zm-1.39,1.92-1.06,1.44h-6.28l-1.06-1.44Zm-1.39,1.92-1,1.44h-3.6l-1-1.44Zm-1,3.36h-3.6V43.5h3.6Zm0,1.92h-3.6V45.42h3.6Zm0,1.92h-3.6V47.34h3.6Zm0,1.92h-3.6V49.26h3.6Zm5.21-14.88-1.06,1.44h-4.56l1.06-1.44Zm1.39-1.92-1.06,1.44h-4.56l1.06-1.44Z"/><path class="cls-2" d="M233.25,49.26l-.58,1.44h-4.08l.58-1.44Zm.76-1.92-.57,1.44h-4.08l.57-1.44Zm11-.48H230.13l.57-1.44h13.78Zm-.76-1.92h-13.4l.58-1.44h12.24Zm-8-3.36L235.74,43h-4.08l.58-1.44Zm.77-1.92-.58,1.44h-4.08l.58-1.44Zm4.89-.48H237.9l-.31-.79-.31.79H233.2l.57-1.44h7.64Zm-.77-1.92H234l.57-1.44h6.1Zm-.76-1.92h-5.72l.58-1.44h4.56Zm2.3,5.76h-4.08l-.58-1.44h4.08Zm.77,1.92h-4.08l-.58-1.44h4.08Zm2.3,5.76h-4.08l-.57-1.44h4.08Zm.77,1.92h-4.08l-.58-1.44H246Z"/><path class="cls-2" d="M260.51,37.26h-13.2v-1a2.61,2.61,0,0,1,.05-.48h13.15Zm-9.6,1.92h-3.6V37.74h3.6Zm0,1.92h-3.6V39.66h3.6Zm0,1.92h-3.6V41.58h3.6Zm0,1.92h-3.6V43.5h3.6Zm0,1.92h-3.6V45.42h3.6Zm9.6,1.92H247.36a2.61,2.61,0,0,1-.05-.48v-1h13.2Zm0-13.44h-13a2.24,2.24,0,0,1,2.21-1.44h10.8Zm0,15.36h-10.8a2.24,2.24,0,0,1-2.21-1.44h13Z"/><path class="cls-2" d="M276.35,37.26H262v-1a2,2,0,0,1,.05-.48h14.3a2.61,2.61,0,0,1,.05.48Zm-10.8,1.92H262V37.74h3.6Zm0,1.92H262V39.66h3.6Zm0,1.92H262V41.58h3.6Zm0,1.92H262V43.5h3.6Zm0,1.92H262V45.42h3.6Zm10.8,1.44a2.61,2.61,0,0,1-.05.48H262a2,2,0,0,1-.05-.48v-1h14.4Zm-.19-13h-14a2.23,2.23,0,0,1,2.21-1.44H274A2.23,2.23,0,0,1,276.16,35.34Zm0,13.92A2.23,2.23,0,0,1,274,50.7h-9.6a2.23,2.23,0,0,1-2.21-1.44Zm.19-10.08h-3.6V37.74h3.6Zm0,1.92h-3.6V39.66h3.6Zm0,1.92h-3.6V41.58h3.6Zm0,1.92h-3.6V43.5h3.6Zm0,1.92h-3.6V45.42h3.6Z"/></g></g></svg>