<svg id="Calque_1" data-name="Calque 1" xmlns="http://www.w3.org/2000/svg" viewBox="0 0 60.3 51.67"><defs><style>.cls-1{fill:#ca9e67;}</style></defs><g id="Calque_2" data-name="Calque 2"><g id="Calque_1-2" data-name="Calque 1-2"><path class="cls-1" d="M59.49,39.58l-2-.79A30.29,30.29,0,0,0,60.3,25.65c0-.42,0-.82,0-1.23a43.3,43.3,0,0,1-.56-5.26A27.12,27.12,0,0,0,55,8,18.35,18.35,0,0,0,39.36,0H20.89A18.37,18.37,0,0,0,5.25,8Q0,15.3,0,25.7,0,35.85,5.17,42.78a18.52,18.52,0,0,0,15.72,7.74H39.36a20.57,20.57,0,0,0,5.35-.65A18.28,18.28,0,0,0,49.32,48l10.42,3.72V41C59.64,40.52,59.56,40.05,59.49,39.58ZM46.9,24.76a23.56,23.56,0,0,1-.5,4.95,17.53,17.53,0,0,1-1.5,4.39L25.81,26.79V39.57H23q-4.5,0-7.17-4.65a20,20,0,0,1-2.39-10.2A18.49,18.49,0,0,1,15.79,15c1.75-2.92,4.15-4.39,7.21-4.39H37.27c3.09,0,5.5,1.47,7.26,4.39A18.55,18.55,0,0,1,46.9,24.76Z"/></g></g></svg>